<?xml version="1.0" encoding="UTF-8"?>
<svg xmlns="http://www.w3.org/2000/svg" xmlns:xlink="http://www.w3.org/1999/xlink" width="50pt" height="50pt" viewBox="0 0 50 50" version="1.1">
<g id="surface1">
<path style=" stroke:none;fill-rule:nonzero;fill:rgb(0%,0%,0%);fill-opacity:1;" d="M 18.949219 5.25 C 16.851562 5.5 15.675781 5.976562 15.25 6.75 C 15.101562 7.023438 14.726562 7.25 14.398438 7.25 C 13.699219 7.25 13.5 7.648438 13.5 9.125 C 13.5 10.199219 13.773438 10.625 14.523438 10.773438 C 14.75 10.824219 15.324219 11.375 15.773438 11.976562 C 16.800781 13.324219 18.601562 14.324219 20 14.300781 L 21 14.273438 L 21 15.351562 C 21 17.375 22.699219 19.101562 24.699219 19.101562 C 26 19.101562 27.675781 18.300781 27.550781 17.773438 C 27.523438 17.601562 27.601562 17.523438 27.75 17.625 C 28.101562 17.851562 28.75 16.226562 28.75 15.101562 C 28.75 14.375 28.824219 14.226562 29.148438 14.351562 C 30.25 14.773438 33.175781 13.148438 34 11.625 C 34.25 11.175781 34.648438 10.851562 35.023438 10.800781 C 35.976562 10.648438 36.25 10.273438 36.25 9.023438 C 36.25 7.824219 35.925781 7.25 35.273438 7.25 C 35.074219 7.25 34.523438 6.898438 34.101562 6.476562 C 33.601562 6 32.875 5.601562 32.199219 5.476562 C 30.648438 5.148438 21.226562 5 18.949219 5.25 Z M 32.550781 6.199219 C 33.648438 6.648438 34.25 7.476562 34.25 8.601562 C 34.226562 10.675781 32.625 12.851562 30.625 13.5 C 29.550781 13.851562 28.5 13.648438 28.5 13.101562 C 28.5 12.425781 26.898438 11.050781 25.75 10.75 C 23.898438 10.25 21.625 11.300781 20.976562 12.949219 C 20.675781 13.726562 20.148438 13.875 18.925781 13.5 C 17.601562 13.125 15.875 11.375 15.476562 10 C 15.074219 8.675781 15.398438 7.324219 16.300781 6.675781 C 16.648438 6.398438 17.601562 6.101562 18.425781 5.976562 C 20.476562 5.699219 31.726562 5.875 32.550781 6.199219 Z M 26.300781 12.773438 C 26.949219 13.125 27.75 14.398438 27.75 15.125 C 27.75 15.976562 27.148438 17.125 26.449219 17.601562 C 26.148438 17.824219 25.398438 18 24.800781 18 C 22.523438 18 21.175781 15.375 22.550781 13.625 C 23.5 12.398438 24.925781 12.074219 26.300781 12.773438 Z M 26.300781 12.773438 "/>
<path style=" stroke:none;fill-rule:nonzero;fill:rgb(0%,0%,0%);fill-opacity:1;" d="M 20.199219 6.199219 C 18.601562 6.273438 18.523438 6.300781 18.273438 7.050781 C 18.125 7.449219 18.050781 7.898438 18.125 8 C 18.199219 8.125 18.148438 8.25 18.050781 8.300781 C 17.925781 8.324219 17.574219 9.101562 17.300781 9.976562 C 16.800781 11.425781 16.800781 11.625 17.125 12 C 17.550781 12.476562 19.449219 13.398438 19.601562 13.226562 C 19.675781 13.175781 20.101562 12.023438 20.574219 10.675781 C 21.125 9.148438 21.351562 8.25 21.175781 8.25 C 21 8.25 21.074219 8.125 21.300781 8 C 21.648438 7.773438 22.199219 6.300781 21.949219 6.175781 C 21.925781 6.148438 21.125 6.148438 20.199219 6.199219 Z M 20.199219 6.199219 "/>
<path style=" stroke:none;fill-rule:nonzero;fill:rgb(0%,0%,0%);fill-opacity:1;" d="M 16.75 14.75 C 16.75 15.199219 17.800781 17.5 18 17.5 C 18.074219 17.5 18.175781 17.675781 18.175781 17.875 C 18.175781 18.175781 19.648438 21.648438 19.898438 21.976562 C 19.949219 22.023438 20.175781 21.925781 20.398438 21.726562 C 20.699219 21.476562 20.773438 21.148438 20.648438 20.324219 C 20.523438 19.425781 20.574219 19.25 21 19.125 C 21.625 18.925781 21.625 18.824219 20.851562 17.023438 C 20.273438 15.726562 20.125 15.550781 19.726562 15.75 C 19.023438 16.125 18.800781 16.050781 18.449219 15.300781 C 18.125 14.625 16.75 14.148438 16.75 14.75 Z M 16.75 14.75 "/>
<path style=" stroke:none;fill-rule:nonzero;fill:rgb(0%,0%,0%);fill-opacity:1;" d="M 31.300781 15.25 C 31.050781 15.699219 30.726562 15.976562 30.5 15.925781 C 30.300781 15.851562 29.976562 15.773438 29.824219 15.726562 C 29.648438 15.675781 29.199219 16.300781 28.773438 17.199219 L 28.023438 18.773438 L 28.648438 19.050781 C 29.101562 19.25 29.25 19.476562 29.148438 19.800781 C 29.074219 20.050781 28.949219 20.449219 28.875 20.675781 C 28.675781 21.25 29.375 22.226562 29.699219 21.875 C 29.976562 21.601562 33 15.023438 33 14.699219 C 33 14.601562 32.726562 14.5 32.375 14.5 C 31.925781 14.5 31.601562 14.726562 31.300781 15.25 Z M 31.300781 15.25 "/>
<path style=" stroke:none;fill-rule:nonzero;fill:rgb(0%,0%,0%);fill-opacity:1;" d="M 15.300781 15.300781 C 15.125 15.476562 15 15.851562 15 16.148438 C 15 16.699219 17.25 21.851562 17.699219 22.300781 C 17.824219 22.425781 18.226562 22.5 18.574219 22.449219 L 19.199219 22.375 L 17.523438 18.699219 C 16.625 16.648438 15.824219 15 15.75 15 C 15.648438 15 15.476562 15.125 15.300781 15.300781 Z M 15.300781 15.300781 "/>
<path style=" stroke:none;fill-rule:nonzero;fill:rgb(0%,0%,0%);fill-opacity:1;" d="M 32.25 18.425781 C 31.398438 20.324219 30.648438 22.023438 30.574219 22.175781 C 30.5 22.398438 30.699219 22.5 31.226562 22.5 C 31.976562 22.5 32.074219 22.375 33.023438 20.324219 C 33.574219 19.125 33.949219 18 33.898438 17.824219 C 33.824219 17.648438 33.875 17.5 34.023438 17.5 C 34.5 17.5 34.851562 16.300781 34.550781 15.625 C 34.398438 15.273438 34.148438 15 34.050781 15 C 33.925781 15 33.125 16.550781 32.25 18.425781 Z M 32.25 18.425781 "/>
<path style=" stroke:none;fill-rule:nonzero;fill:rgb(0%,0%,0%);fill-opacity:1;" d="M 24.175781 27.375 C 23.023438 28.5 22.773438 29.625 23.398438 30.925781 C 23.773438 31.648438 24.273438 32.101562 25.601562 32.800781 C 26.550781 33.324219 27.425781 33.675781 27.523438 33.601562 C 27.648438 33.523438 27.726562 33.550781 27.699219 33.675781 C 27.648438 33.800781 27.875 34.148438 28.199219 34.5 C 28.949219 35.300781 29.023438 36.875 28.351562 37.925781 C 27.898438 38.625 28.125 38.648438 29.175781 38 C 30.101562 37.449219 31 35.851562 31 34.824219 C 31 33.476562 30.148438 32.574219 27.773438 31.375 C 26.125 30.574219 25.398438 30.050781 25.125 29.523438 C 24.648438 28.574219 24.648438 27.75 25.148438 27.050781 C 25.726562 26.199219 25.199219 26.398438 24.175781 27.375 Z M 24.175781 27.375 "/>
<path style=" stroke:none;fill-rule:nonzero;fill:rgb(0%,0%,0%);fill-opacity:1;" d="M 40.675781 27.351562 C 38.925781 29.101562 39.273438 31.199219 41.550781 32.449219 C 44.050781 33.851562 44.699219 34.324219 45.023438 34.925781 C 45.449219 35.726562 45.398438 37.125 44.898438 37.875 C 44.425781 38.601562 44.5 38.625 45.5 38.125 C 46.851562 37.425781 47.75 35.550781 47.398438 34.148438 C 47.300781 33.699219 47.125 33.550781 46.800781 33.648438 C 46.449219 33.773438 46.449219 33.75 46.726562 33.550781 C 47.300781 33.148438 46.726562 32.625 44.199219 31.351562 C 41.925781 30.148438 41.25 29.449219 41.25 28.199219 C 41.25 27.875 41.425781 27.351562 41.648438 27.050781 C 42.226562 26.199219 41.625 26.398438 40.675781 27.351562 Z M 40.675781 27.351562 "/>
<path style=" stroke:none;fill-rule:nonzero;fill:rgb(0%,0%,0%);fill-opacity:1;" d="M 2.25 32.625 L 2.25 38.5 L 5 38.5 L 5 26.75 L 2.25 26.75 Z M 2.25 32.625 "/>
<path style=" stroke:none;fill-rule:nonzero;fill:rgb(0%,0%,0%);fill-opacity:1;" d="M 12.5 32.625 L 12.5 38.5 L 15.25 38.5 L 15.25 36.875 C 15.25 35.976562 15.324219 35.25 15.449219 35.25 C 15.550781 35.25 16.101562 36 16.699219 36.875 L 17.75 38.5 L 21.050781 38.5 L 19.851562 36.800781 C 19.199219 35.875 18.324219 34.648438 17.925781 34.050781 C 17.5 33.476562 17.074219 33 17 33 C 16.898438 33 16.550781 33.398438 16.226562 33.875 C 15.898438 34.351562 15.550781 34.75 15.449219 34.75 C 15.324219 34.75 15.25 32.949219 15.25 30.75 L 15.25 26.75 L 12.5 26.75 Z M 12.5 32.625 "/>
<path style=" stroke:none;fill-rule:nonzero;fill:rgb(0%,0%,0%);fill-opacity:1;" d="M 35.949219 27.601562 C 35.699219 27.949219 35.101562 28.351562 34.625 28.5 C 33.898438 28.75 33.75 28.898438 33.75 29.5 C 33.75 29.898438 33.898438 30.273438 34.074219 30.324219 C 34.324219 30.425781 34.324219 30.476562 34.074219 30.476562 C 33.851562 30.5 33.75 30.976562 33.75 32 C 33.75 33.023438 33.851562 33.5 34.074219 33.5 C 34.300781 33.5 34.300781 33.550781 34.074219 33.699219 C 33.851562 33.824219 33.773438 34.625 33.773438 36.199219 L 33.800781 38.5 L 36.5 38.5 L 36.5 32.75 C 36.5 29.574219 36.476562 27 36.449219 27 C 36.398438 27 36.175781 27.273438 35.949219 27.601562 Z M 35.949219 27.601562 "/>
<path style=" stroke:none;fill-rule:nonzero;fill:rgb(0%,0%,0%);fill-opacity:1;" d="M 6.449219 30.925781 C 6.101562 31 6.125 31.125 6.648438 31.625 C 7.226562 32.199219 7.25 32.375 7.25 35.375 L 7.25 38.5 L 10.050781 38.5 L 9.949219 35.425781 C 9.875 33.425781 9.726562 32.199219 9.5 31.824219 C 8.925781 30.925781 7.75 30.574219 6.449219 30.925781 Z M 6.449219 30.925781 "/>
</g>
</svg>
